<svg xmlns="http://www.w3.org/2000/svg" version="1.1" xmlns:xlink="http://www.w3.org/1999/xlink" xmlns:svgjs="http://svgjs.dev/svgjs" width="2000" height="7057" viewBox="0 0 2000 7057"><g transform="matrix(1,0,0,1,-5.7851428571423185,2.857085020242721)"><svg viewBox="0 0 70 247" data-background-color="#ffffff" preserveAspectRatio="xMidYMid meet" height="7057" width="2000" xmlns="http://www.w3.org/2000/svg" xmlns:xlink="http://www.w3.org/1999/xlink"><g id="tight-bounds" transform="matrix(1,0,0,1,0.20247999999998,-0.09999999999999432)"><svg viewBox="0 0 69.59504000000001 247.2" height="247.2" width="69.59504000000001"><g><svg></svg></g><g><svg viewBox="0 0 69.59504000000001 247.2" height="247.2" width="69.59504000000001"><g transform="matrix(1,0,0,1,0,47.215199999999996)"><svg viewBox="0 0 69.59504000000001 152.7696" height="152.7696" width="69.59504000000001"><g><svg viewBox="0 0 69.59504000000001 152.7696" height="152.7696" width="69.59504000000001"><g><svg viewBox="0 0 69.59504000000001 152.7696" height="152.7696" width="69.59504000000001"><g><svg viewBox="0 0 69.59504000000001 152.7696" height="152.7696" width="69.59504000000001"><g id="textblocktransform"><svg viewBox="0 0 69.59504000000001 152.7696" height="152.7696" width="69.59504000000001" id="textblock"><g><svg viewBox="0 0 69.59504000000001 152.7696" height="152.7696" width="69.59504000000001"><g transform="matrix(1,0,0,1,0,0)"><svg width="69.59504000000001" viewBox="2.25 -31.5 14.350000381469727 31.5" height="152.7696" data-palette-color="#ff5c40"><path d="M11.65-27.6Q11.5-24.4 11.5-21.45L11.5-21.45Q11.5-18.4 11.9-12.5L11.9-12.5Q11.95-11.6 12.1-8.88 12.25-6.15 12.25-3.9L12.25-3.9Q12.75-3.95 13.33-4.05 13.9-4.15 14.2-4.15L14.2-4.15Q15.3-4.15 15.95-3.6 16.6-3.05 16.6-1.9L16.6-1.9Q16.6-1.15 16-0.75 15.4-0.35 13.93-0.18 12.45 0 9.65 0L9.65 0Q6.55 0 5-0.2 3.45-0.4 2.85-0.98 2.25-1.55 2.25-2.7L2.25-2.7Q2.25-3.55 2.8-3.85 3.35-4.15 4.35-4.15L4.35-4.15 5.4-4.1 7.05-4 6.8-9.9Q6.5-14.7 6.5-18.7L6.5-18.7Q6.5-20.85 6.65-24.6L6.65-24.6 6.75-27.35Q5.05-27.25 4.1-27.25L4.1-27.25Q3-27.25 2.63-27.65 2.25-28.05 2.25-29.3L2.25-29.3Q2.25-30.7 4.17-31.1 6.1-31.5 10.05-31.5L10.05-31.5Q13.1-31.5 14.63-31.3 16.15-31.1 16.15-30.4L16.15-30.4Q16.15-28.7 15.43-28.18 14.7-27.65 12.65-27.65L12.65-27.65 11.65-27.6Z" opacity="1" transform="matrix(1,0,0,1,0,0)" fill="#ff5c40" class="undefined-text-0" data-fill-palette-color="primary" id="text-0"></path></svg></g></svg></g></svg></g></svg></g><g></g></svg></g></svg></g></svg></g><path d="M0 41.215L0 1 69.595 1 69.595 41.215 55.818 41.215 55.818 14.777 13.777 14.777 13.777 41.215 0 41.215M0 205.985L0 246.2 69.595 246.2 69.595 205.985 55.818 205.985 55.818 232.423 13.777 232.423 13.777 205.985 0 205.985" fill="#ff5c40" stroke="transparent" data-fill-palette-color="primary"></path></svg></g><defs></defs></svg><rect width="69.59504000000001" height="247.2" fill="none" stroke="none" visibility="hidden"></rect></g></svg></g></svg>